<?xml version="1.0" encoding="utf-8"?>
<!-- Generator: Adobe Illustrator 21.0.0, SVG Export Plug-In . SVG Version: 6.00 Build 0)  -->
<svg version="1.1" id="Слой_1" xmlns="http://www.w3.org/2000/svg" xmlns:xlink="http://www.w3.org/1999/xlink" x="0px" y="0px"
	 viewBox="0 0 595.3 841.9" style="enable-background:new 0 0 595.3 841.9;" xml:space="preserve">
<style type="text/css">
	.st0{fill:#FFFFFF;}
</style>
<g>
	<path class="st0" d="M-814.3,17.1c-5.4,2.4-10.4,3.4-15,5.9c-4.5,2.4-9.5,3.5-14.3,0.8c-2-1.1-2.2,0.4-3,1.2
		c-3.3,3.1-7.2,4.7-11.8,4.5c-4.5-0.3-6.6-2.7-6.2-7.3c0.5-5,2.8-9.5,4.8-14.1c-1.5-0.2-2.6-0.5-4,1c-9,10.1-20.4,16.2-33.7,17.9
		c-8,1-11.2-4.2-8.3-11.7c2.1-5.5,5.7-10.1,9.4-14.6c6.3-8,13.1-15.6,21.1-21.9c1.7-1.3,3.4-2.7,5.4-3.6c4.4-2.2,8.9-1.5,10.3,1.4
		c1.7,3.8-0.7,9.1-5.8,11.5c1.4-2.7,3.3-4.7,3.7-7.2c0.6-3.8-1.2-5.4-4.8-4c-1.1,0.4-2.1,1-3,1.7c-11.5,9.1-21,19.9-28.9,32.1
		c-2.1,3.3-5.3,7.4-2.6,10.9c3,3.7,7.8,1.5,11.6,0c7.1-2.7,13.4-7.1,19.8-11.7c-2.6,0-5.1,0-7.7,0c-1.3,0-2.9,0.2-2.8-1.8
		c0-1.9,1.1-2.6,2.9-2.5c5.3,0.2,10.6,0,15.8-1.6c3.5-1.1,6.1-2.8,8.2-5.9c4.4-6.5,8.9-12.9,14.8-18.1c2.7-2.4,6.1-5.7,9.6-2.7
		c3.5,3,0,6.4-1.8,9.2c-4.7,7.3-11.4,12.5-19,16.6c-4.5,2.4-10.7,15.3-10.1,20.3c0.3,2.3,1.7,2.8,3.5,2.3c4.6-1.2,8.7-3.3,11.2-7.6
		c4.2-7.2,10.4-12.5,16.9-17.4c1.6-1.2,3.8-2,5.5-0.3c1.6,1.6,0.3,3.5-0.6,5c-3.5,5.7-9,9.2-14.5,12.7c-1.1,0.7-3.5,0.9-2.7,2.8
		c0.6,1.6,2.7,1,4.1,0.7c8.2-1.7,16.1-4,23.4-8.3c2.1-1.3,3.2-3.3,4.5-5.2c5.1-7.8,10-15.7,16.5-22.5c4.4-4.5,8.3-5.8,10.7-3.3
		c3.7,4,0.7,7.5-1.5,10.7c-4.5,6.8-11.2,11.3-17.8,15.8c-2.2,1.5-4.3,3-7.3,5.1c4.2,0.4,8.2-0.2,6.7,5.1c-1.5,5.2-8,9.5-12.3,7.7
		C-818.2,24.8-815.7,21.2-814.3,17.1z"/>
	<path class="st0" d="M-607.4,70.1c-3.3,0.6-6.6-1.2-10.1,0.3c-2.5,1-3.1-1.9-2.9-3.9c0.2-2.4,0.8-4.8,1.4-8.2
		c-4.5,4.1-8,7.9-12.8,10c-4.5,2-5.8,1.1-5.7-4.2c-2.6,0.4-4.2,2.6-6.4,3.6c-2.9,1.2-5.9,2.8-8.4-0.7c-0.3-2-1.6-3.9-1-6.1
		c5.3-12.1,12-23.2,20.9-33c0.9-0.4,1.3,0.2,1.6,0.9c0.3,1.8-0.7,3.2-1.7,4.5c-4.8,6.2-8.7,12.9-12.8,19.5c-0.9,1.2-1.6,2.6-2,4.1
		c-0.4,0.5-0.9,1-1.3,1.5c-1.6,2.1-2.7,4.5-0.9,6.8c1.9,2.3,4.4,0.8,6.3-0.4c5.1-3.1,10.2-6.1,14.1-10.8c2.5-3,5.1-6.1,8.6-8.1
		c2.3,0.3,1.6,1.8,1.2,3.2c-5.9,4.4-11.2,9.4-14.9,16.9c9.3-2.8,14.2-9.8,19.5-16.3c0.7,5-1.5,9-2.3,13.3c-1,5-0.5,5.4,4.5,4.6
		C-611,68.6-607.7,66.5-607.4,70.1z"/>
	<path class="st0" d="M-736.3,44.9c-6.3,10.8-12.6,21.5-20.5,31.2c-2.3,2.9-4.6,5.7-7.7,7.8c-2.8,1.8-5.2,1.2-5.6-2.1
		c-0.5-4.6-0.3-9.3-0.3-13.9c0-0.8,0.6-1.3,1.2-1.3c1,0,1.3,1,1.3,1.8c0.2,3.1,0.2,6.3,0.3,9.5c0.1,1.3-0.4,3,1,3.6
		c1.7,0.8,2.6-1,3.6-2c7.7-7.9,13.8-17.1,19.4-26.5c5.9-10,11.5-20.2,17.1-30.4c0.7-1.2,1.1-3,2.6-2.2c1.5,0.7,0.4,2.4,0,3.6
		c-4,10.7-8,21.5-12,32.2c-1.3,3.6-2.4,7.3-2.8,11.1c-0.2,1.5,0.2,2.7,2.1,2.4c1.1-0.3,1.4,0.2,1.2,1.2c-1.3,1.2-2.7,2.1-4.4,1.2
		c-2-1-1.8-3-1.7-4.8c0.6-7.2,4.2-13.5,6.2-20.3c0.5-2.8,1.3-5.5,3.3-8.7C-733.9,40.9-734,43.6-736.3,44.9z"/>
	<path class="st0" d="M-545.4,59.9c-0.8,0.5-1.6,1.1-2.5,1.6c-1.2,0.7-2.5,1.4-3.7,0.2c-1.3-1.2-0.4-2.5,0.2-3.6
		c1.5-3.2,3.1-6.3,4.5-9.4c0.3-0.7,0.5-1.8,0.1-2.3c-0.7-1-1.8-0.5-2.7-0.1c-6.4,3.4-12.5,7-15.2,14.4c-0.7,2-1.9,3.9-2.9,5.8
		c-0.7,1.3-1.6,3-3.4,1.9c-1.5-0.9-0.4-2.4,0.1-3.6c1.6-3.1,3.2-6.2,4.8-9.3c0.4-0.7,0.6-1.5,0-2.5c-4.3,2.8-8.1,6.4-12.9,8.4
		c-2,0.8-4.2,1.8-6.1,0.1c-1.8-1.6-1-3.7-0.5-5.6c1.5-4.9,3.8-9.4,8.2-13.9c0.2,4.3-2.5,6.2-3.2,8.9c-0.2,0.8-0.8,1.5-1,2.3
		c-0.6,1.9-2.2,4.2-0.7,5.6c1.8,1.7,4.1-0.2,5.8-1.3c4.9-3,10.3-5.5,13-11.2c0.5-1,1.4-2.8,2.9-1.7c1.7,1.2-0.1,2.2-0.7,3.3
		c-0.6,1.2-1.4,2.3-0.8,3.9c4.1-3.1,8-6.6,13-8.2c3.9-1.2,5.3-0.1,4.6,4c-0.6,3.5-2.3,6.6-3.9,9.7c-1.1,2.3,0.4,1.6,1.5,1.4
		C-545.4,58.4-545.2,58.9-545.4,59.9z"/>
	<path class="st0" d="M-607.4,70.1c-1-2.2-4.2-0.2-5.1-2.6c1.8-1.5,3.8-0.6,5.7-0.4c2,0.2,4,0.4,5.9-0.2c2.9-0.9,6.1-1.8,6.4-5.4
		c0.2-3.5-3.2-3.7-5.5-4.8c-1.5-0.7-3.1-1.2-4.5-2.1c-1.8-1.1-2.4-2.9-1-4.7c2.8-3.6,6.2-6.3,12-6.2c-2.9,3.2-6.9,3.8-8.9,7.6
		c2.1,1,4.3,2,6.4,3.2c5.5,3,6.2,7.9,1.5,12C-598.2,69.7-602.5,71.3-607.4,70.1z"/>
	<path class="st0" d="M-692.2,59.1c-2.2,4.6-5.7,8-9.7,11c-1.1,0.9-2.5,2-4,0.7c-1.2-1.1-0.7-2.5-0.2-3.7c0.7-2,1.6-3.9,2.9-6.8
		c-3.2,2.5-5.7,4.5-8.2,6.4c-0.5-0.1-0.8-0.4-1-0.9c6.7-6,14-11.3,19.8-18.2c0.8-1,2-1.8,3.1-2.5c1.5-1,3.5-2.7,4.7-0.6
		c1,1.7-0.9,3.3-2.7,4.1c-8.2,3.8-12.5,10.8-16,19.5c5.2-2.3,7.3-6.8,11-9.5L-692.2,59.1z"/>
	<path class="st0" d="M-786.7,10.5c2.8,1,5.2,1.7,7.5,2.7c3.2,1.5,3.5,3.9,1,6.3c-3.6,3.5-8.1,5.1-13.2,5.1c-1.3,0-3-0.1-3-1.8
		c0-2.2,1.7-1.3,3-1.2c3.6,0.1,6.9-1,9.8-3c1.9-1.3,1.7-2.3-0.5-2.9c-2.1-0.6-4.2-1-6.2-1.9c-3.2-1.4-3.7-3.6-1.1-6.1
		c3.5-3.4,10.1-4.5,14.3-2.1C-778.9,7.4-783.6,6.5-786.7,10.5z"/>
	<path class="st0" d="M-712.4,65.9c0.3,0.3,0.7,0.6,1,0.9c-2.3,1.9-4.5,3.8-6.9,5.5c-1.7,1.2-3.7,2.9-5.8,1.2c-2-1.5-1.2-3.9-0.8-6
		c1-5.1,2.9-9.8,4.7-14.6c0.3-2.8,0.9-5.4,1.9-8c2.5-5.5,5.3-10.8,9.2-15.5c-4.7,14-11.3,27.2-13.8,42.3
		C-718.2,70.8-715.8,67.6-712.4,65.9z"/>
	<path class="st0" d="M-535.5,51.7c2.5-2.6,4.9-5.3,7.5-7.9c1.1-1,2.8-1.9,3.9-0.4c1,1.5-0.8,2.3-1.8,3c-3.3,2.3-6.1,5-7.1,9.1
		c0.4,0.2,0.7,0.4,1,0.4c2.9,0.3,6.4-0.8,7.6,3c1.2,4-1.4,6.7-4.3,8.7c-3.4,2.3-6.8,5.5-12.6,1.3c5.6,0.1,9.6-0.9,12.6-4
		c1.1-1.2,2.5-2.4,1.9-4.3c-0.7-2.2-2.6-1.6-4.2-1.6c-2.3-0.1-5.3,0.9-5.3-3.2C-535.3,54.6-536.7,52.9-535.5,51.7z"/>
	<path class="st0" d="M-653.4,60.8c1.2,1.9,1.1,4,1,6.1c-1.2-3.3-3.1-3.7-5.9-1.7c-3.3,2.3-7,3.7-11.1,2.9c-1.8-0.4-3.5-1.1-4-3.2
		c-1.6-3.1-0.6-5.7,1.3-8.2c1.7-2.2,3.8-4.1,4.7-6.8c1.5-1.6,3.6-2.2,5.5-2.9c1.4,2.1-0.8,2.6-1.5,3.6c-1.5,2-3.2,3.8-4.7,5.8
		c-1.5,2.1-4.2,4.2-2.3,6.9c2,3,5.4,1.7,8.2,0.9C-659.2,63.3-656.3,62-653.4,60.8z"/>
	<path class="st0" d="M-667.3,50c1.3,2.5-0.6,4-2,5.5c-2.5,2.7-4.3,5.7-4,9.6c-1-0.3-0.3-2.2-1.9-2c-1.4-1.6-0.4-3.1,0.5-4.4
		c1.2-1.6,0.3-2.6-0.6-3.8c2-7.8,3.9-15.6,5.9-23.4c0.5,7.4-1.2,14.5-3.3,22.2C-670.5,52.2-668.9,51.1-667.3,50z"/>
	<path class="st0" d="M-631.2,29.2c-0.4-0.4-0.9-0.9-1.3-1.3c0.2-0.4,0.4-1,0.8-1.2c1.6-1.3,2.8-4.3,5.1-2.7
		c1.8,1.2,0.2,3.7-0.5,5.5c-3.4,9.8-9.8,17.6-17.3,24.5c-0.9,0.3-1.3-0.2-1.4-1c1.4-3.1,4-5.2,6-7.8
		C-636,40.3-631.5,35.8-631.2,29.2z"/>
	<path class="st0" d="M-718.4,44.9c0.2,2.9,0.6,5.8-1.9,8c-1.9,1.2-1.9,1.2-2.9,2.7c-3.7,5.4-6.6,11.5-12.2,15.4
		c-0.4-0.4-0.8-0.8-1.2-1.2C-728.7,62.8-724.2,53.3-718.4,44.9z"/>
	<path class="st0" d="M-692.5,58.7c1.2-2.5,2.7-4.7,4.9-6.8c1.7,2.3,0,4-0.3,5.8c-0.6,3.2-2.6,6.2-2.1,9.6c0.2,1.2,0.8,2.3-1,2.4
		c-1.4,0.1-2.2-0.9-2-2.2c0.2-1.6,0.6-3.2,1-4.8c0.3-1.2,1.2-2.5-0.2-3.6C-692.2,59.1-692.5,58.7-692.5,58.7z"/>
	<path class="st0" d="M-675.4,54.9c1.1,0.2,2.2,0.4,3.4,0.6c-0.4,2.8-3.5,4.5-3.3,7.5c-1.3,2.1-1.2,7-3.7,6c-3-1.2,0.3-4.7,1-7.1
		C-677.3,59.5-676.3,57.2-675.4,54.9z"/>
	<path class="st0" d="M-535.5,51.7c0.1,1.5,0.6,3-0.8,4.2c-0.2-1.1-0.4-1.9-1.8-0.9c-2.4,1.7-4.9,3.2-7.3,4.9
		c-0.4-0.4-0.8-0.7-1.1-1.1C-542.8,56.4-539.2,54.1-535.5,51.7z"/>
	<path class="st0" d="M-619.3,49c-0.9-0.9,0-2.4-1.2-3.2c1.2-1.6,2.8-2.3,4.7-1.8c0.4,0.1,0.7,1.1,0.7,1.7
		C-615.2,48.3-617.5,48.4-619.3,49z"/>
	<path class="st0" d="M-645.3,52.9c0.3,0.3,0.6,0.6,0.9,0.9c-0.7,1.3-1.7,2.3-3,2.9c-0.7-1.5-1.2-3,0.9-3.9
		C-646.1,52.3-645.7,52.3-645.3,52.9z"/>
</g>
</svg>
